ffmpeg started on 2016-12-05 at 05:58:37
Report written to "Output/x264/results/ffmpeg/crowd_run_2160p50veryfast10000k.log"
Command line:
Tools/ffmpeg/ffmpeg -benchmark -y -i Input/y4m/crowd_run_2160p50.y4m -c:v libx264 -preset veryfast -b:v 10000k -an Output/x264/encoded/crowd_run_2160p50veryfast10000k.mkv
ffmpeg version N-82227-gdb23fde Copyright (c) 2000-2016 the FFmpeg developers
  built with gcc 5.4.0 (Ubuntu 5.4.0-6ubuntu1~16.04.2) 20160609
  configuration: --prefix=/home/jaroslav/ffmpeg_build --pkg-config-flags=--static --extra-cflags=-I/home/jaroslav/ffmpeg_build/include --extra-ldflags=-L/home/jaroslav/ffmpeg_build/lib --bindir=/home/jaroslav/bin --enable-gpl --enable-libass --enable-libfdk-aac --enable-libfreetype --enable-libmp3lame --enable-libopus --enable-libtheora --enable-libvorbis --enable-libvpx --enable-libx264 --enable-libx265 --enable-nvenc --enable-libmfx --enable-libxvid --enable-libgsm --enable-libopencore-amrnb --enable-version3 --enable-nonfree
  libavutil      55. 35.100 / 55. 35.100
  libavcodec     57. 66.101 / 57. 66.101
  libavformat    57. 57.100 / 57. 57.100
  libavdevice    57.  2.100 / 57.  2.100
  libavfilter     6. 66.100 /  6. 66.100
  libswscale      4.  3.100 /  4.  3.100
  libswresample   2.  4.100 /  2.  4.100
  libpostproc    54.  2.100 / 54.  2.100
Input #0, yuv4mpegpipe, from 'Input/y4m/crowd_run_2160p50.y4m':
  Duration: 00:00:10.00, start: 0.000000, bitrate: 4976642 kb/s
    Stream #0:0: Video: rawvideo (I420 / 0x30323449), yuv420p(progressive), 3840x2160, SAR 1:1 DAR 16:9, 50 fps, 50 tbr, 50 tbn, 50 tbc
[libx264 @ 0x35171c0] using SAR=1/1
[libx264 @ 0x35171c0] using cpu capabilities: MMX2 SSE2Fast SSSE3 SSE4.2 AVX FMA3 AVX2 LZCNT BMI2
[libx264 @ 0x35171c0] profile High, level 5.2
[libx264 @ 0x35171c0] 264 - core 148 - H.264/MPEG-4 AVC codec - Copyleft 2003-2016 - http://www.videolan.org/x264.html - options: cabac=1 ref=1 deblock=1:0:0 analyse=0x3:0x113 me=hex subme=2 psy=1 psy_rd=1.00:0.00 mixed_ref=0 me_range=16 chroma_me=1 trellis=0 8x8dct=1 cqm=0 deadzone=21,11 fast_pskip=1 chroma_qp_offset=0 threads=6 lookahead_threads=2 sliced_threads=0 nr=0 decimate=1 interlaced=0 bluray_compat=0 constrained_intra=0 bframes=3 b_pyramid=2 b_adapt=1 b_bias=0 direct=1 weightb=1 open_gop=0 weightp=1 keyint=250 keyint_min=25 scenecut=40 intra_refresh=0 rc_lookahead=10 rc=abr mbtree=1 bitrate=10000 ratetol=1.0 qcomp=0.60 qpmin=0 qpmax=69 qpstep=4 ip_ratio=1.40 aq=1:1.00
Output #0, matroska, to 'Output/x264/encoded/crowd_run_2160p50veryfast10000k.mkv':
  Metadata:
    encoder         : Lavf57.57.100
    Stream #0:0: Video: h264 (libx264) (H264 / 0x34363248), yuv420p, 3840x2160 [SAR 1:1 DAR 16:9], q=-1--1, 10000 kb/s, 50 fps, 1k tbn, 50 tbc
    Metadata:
      encoder         : Lavc57.66.101 libx264
    Side data:
      cpb: bitrate max/min/avg: 0/0/10000000 buffer size: 0 vbv_delay: -1
Stream mapping:
  Stream #0:0 -> #0:0 (rawvideo (native) -> h264 (libx264))
Press [q] to stop, [?] for help
frame=   16 fps=0.0 q=0.0 size=       0kB time=00:00:00.00 bitrate=N/A speed=   0x    frame=   28 fps= 22 q=41.0 size=       1kB time=00:00:00.10 bitrate=  58.1kbits/s speed=0.0777x    frame=   35 fps= 19 q=49.0 size=       1kB time=00:00:00.24 bitrate=  24.3kbits/s speed=0.13x    frame=   50 fps= 21 q=46.0 size=       1kB time=00:00:00.54 bitrate=  10.8kbits/s speed=0.227x    frame=   65 fps= 22 q=45.0 size=       1kB time=00:00:00.84 bitrate=   7.0kbits/s speed=0.289x    frame=   78 fps= 23 q=45.0 size=       1kB time=00:00:01.10 bitrate=   5.3kbits/s speed=0.322x    frame=   91 fps= 23 q=44.0 size=       1kB time=00:00:01.36 bitrate=   4.3kbits/s speed=0.346x    frame=  104 fps= 23 q=44.0 size=       1kB time=00:00:01.62 bitrate=   3.6kbits/s speed=0.365x    frame=  117 fps= 24 q=44.0 size=       1kB time=00:00:01.88 bitrate=   3.1kbits/s speed=0.381x    frame=  131 fps= 24 q=44.0 size=       1kB time=00:00:02.16 bitrate=   2.7kbits/s speed=0.397x    frame=  145 fps= 24 q=43.0 size=       1kB time=00:00:02.44 bitrate=   2.4kbits/s speed=0.409x    frame=  158 fps= 24 q=43.0 size=       1kB time=00:00:02.70 bitrate=   2.2kbits/s speed=0.414x    frame=  171 fps= 24 q=43.0 size=       1kB time=00:00:02.96 bitrate=   2.0kbits/s speed=0.421x    frame=  184 fps= 24 q=43.0 size=       1kB time=00:00:03.22 bitrate=   1.8kbits/s speed=0.426x    frame=  198 fps= 24 q=43.0 size=       1kB time=00:00:03.50 bitrate=   1.7kbits/s speed=0.432x    frame=  208 fps= 24 q=43.0 size=       1kB time=00:00:03.70 bitrate=   1.6kbits/s speed=0.419x    frame=  222 fps= 24 q=43.0 size=       1kB time=00:00:03.98 bitrate=   1.5kbits/s speed=0.426x    frame=  236 fps= 24 q=43.0 size=    5161kB time=00:00:04.26 bitrate=9921.9kbits/s speed=0.429x    frame=  250 fps= 24 q=43.0 size=    5161kB time=00:00:04.54 bitrate=9310.1kbits/s speed=0.434x    frame=  262 fps= 24 q=43.0 size=    5161kB time=00:00:04.78 bitrate=8842.7kbits/s speed=0.436x    frame=  272 fps= 24 q=43.0 size=    6202kB time=00:00:04.98 bitrate=10199.5kbits/s speed=0.434x    frame=  278 fps= 23 q=43.0 size=    6202kB time=00:00:05.10 bitrate=9959.6kbits/s speed=0.425x    frame=  292 fps= 23 q=43.0 size=    6202kB time=00:00:05.38 bitrate=9441.3kbits/s speed=0.43x    frame=  305 fps= 23 q=43.0 size=    6202kB time=00:00:05.64 bitrate=9006.2kbits/s speed=0.432x    frame=  319 fps= 23 q=43.0 size=    6202kB time=00:00:05.92 bitrate=8580.3kbits/s speed=0.436x    frame=  332 fps= 24 q=43.0 size=    6202kB time=00:00:06.18 bitrate=8219.4kbits/s speed=0.438x    frame=  339 fps= 23 q=43.0 size=    6202kB time=00:00:06.32 bitrate=8037.3kbits/s speed=0.432x    frame=  352 fps= 23 q=43.0 size=    6202kB time=00:00:06.58 bitrate=7719.8kbits/s speed=0.434x    frame=  366 fps= 23 q=43.0 size=    6202kB time=00:00:06.86 bitrate=7404.7kbits/s speed=0.437x    frame=  378 fps= 23 q=43.0 size=    6202kB time=00:00:07.10 bitrate=7154.5kbits/s speed=0.439x    frame=  391 fps= 23 q=43.0 size=    6202kB time=00:00:07.36 bitrate=6901.8kbits/s speed=0.44x    frame=  404 fps= 23 q=43.0 size=    6202kB time=00:00:07.62 bitrate=6666.3kbits/s speed=0.441x    frame=  409 fps= 23 q=43.0 size=    6202kB time=00:00:07.72 bitrate=6580.0kbits/s speed=0.433x    frame=  419 fps= 23 q=43.0 size=    6202kB time=00:00:07.92 bitrate=6413.8kbits/s speed=0.432x    frame=  431 fps= 23 q=43.0 size=    6202kB time=00:00:08.16 bitrate=6225.2kbits/s speed=0.433x    frame=  444 fps= 23 q=43.0 size=    6202kB time=00:00:08.42 bitrate=6033.0kbits/s speed=0.434x    frame=  457 fps= 23 q=43.0 size=    6202kB time=00:00:08.68 bitrate=5852.3kbits/s speed=0.436x    frame=  470 fps= 23 q=43.0 size=    6202kB time=00:00:08.94 bitrate=5682.1kbits/s speed=0.437x    frame=  482 fps= 23 q=43.0 size=   11329kB time=00:00:09.18 bitrate=10108.2kbits/s speed=0.438x    frame=  495 fps= 23 q=43.0 size=   11329kB time=00:00:09.44 bitrate=9829.9kbits/s speed=0.44x    frame=  500 fps= 23 q=-1.0 Lsize=   12304kB time=00:00:09.94 bitrate=10139.3kbits/s speed=0.449x    
video:12300kB audio:0kB subtitle:0kB other streams:0kB global headers:0kB muxing overhead: 0.036603%
bench: utime=68.512s
bench: maxrss=1091652kB
[libx264 @ 0x35171c0] frame I:2     Avg QP:34.14  size:341112
[libx264 @ 0x35171c0] frame P:126   Avg QP:42.28  size: 53964
[libx264 @ 0x35171c0] frame B:372   Avg QP:44.72  size: 13743
[libx264 @ 0x35171c0] consecutive B-frames:  0.8%  0.0%  0.0% 99.2%
[libx264 @ 0x35171c0] mb I  I16..4: 19.8% 60.1% 20.1%
[libx264 @ 0x35171c0] mb P  I16..4:  6.6% 12.1%  0.0%  P16..4: 20.1%  6.8%  1.8%  0.0%  0.0%    skip:52.6%
[libx264 @ 0x35171c0] mb B  I16..4:  0.8%  0.6%  0.0%  B16..8: 12.5%  2.2%  0.0%  direct: 2.3%  skip:81.5%  L0:43.3% L1:54.2% BI: 2.5%
[libx264 @ 0x35171c0] final ratefactor: 35.18
[libx264 @ 0x35171c0] 8x8 transform intra:60.3% inter:48.9%
[libx264 @ 0x35171c0] coded y,uvDC,uvAC intra: 25.4% 44.0% 12.2% inter: 1.2% 4.8% 0.1%
[libx264 @ 0x35171c0] i16 v,h,dc,p: 45% 26% 19% 10%
[libx264 @ 0x35171c0] i8 v,h,dc,ddl,ddr,vr,hd,vl,hu: 19% 14% 38%  5%  4%  5%  5%  5%  5%
[libx264 @ 0x35171c0] i4 v,h,dc,ddl,ddr,vr,hd,vl,hu: 20% 17% 11%  9%  9%  9%  8%  9%  9%
[libx264 @ 0x35171c0] i8c dc,h,v,p: 72% 10% 16%  2%
[libx264 @ 0x35171c0] Weighted P-Frames: Y:1.6% UV:0.0%
[libx264 @ 0x35171c0] kb/s:10075.20
